<svg width="100" height="38" viewBox="0 0 100 38" fill="none" xmlns="http://www.w3.org/2000/svg">
<path d="M14.3409 10.8182V14.2273H0.227273V10.8182H14.3409ZM4.45455 37V7.20455C4.45455 5.70454 4.80682 4.45454 5.51136 3.45454C6.21591 2.45454 7.13068 1.70454 8.25568 1.20454C9.38068 0.704543 10.5682 0.454543 11.8182 0.454543C12.8068 0.454543 13.6136 0.534089 14.2386 0.693181C14.8636 0.852271 15.3295 0.999998 15.6364 1.13636L14.4773 4.61364C14.2727 4.54545 13.9886 4.46023 13.625 4.35795C13.2727 4.25568 12.8068 4.20454 12.2273 4.20454C10.8977 4.20454 9.9375 4.53977 9.34659 5.21023C8.76705 5.88068 8.47727 6.86364 8.47727 8.15909V37H4.45455ZM87.1463 37.5455C84.9645 37.5455 83.0384 36.9943 81.3679 35.892C79.6974 34.7784 78.3906 33.2102 77.4474 31.1875C76.5043 29.1534 76.0327 26.75 76.0327 23.9773C76.0327 21.2273 76.5043 18.8409 77.4474 16.8182C78.3906 14.7955 79.7031 13.233 81.3849 12.1307C83.0668 11.0284 85.0099 10.4773 87.2145 10.4773C88.919 10.4773 90.2656 10.7614 91.2543 11.3295C92.2543 11.8864 93.0156 12.5227 93.5384 13.2386C94.0724 13.9432 94.4872 14.5227 94.7827 14.9773H95.1236V2.09091H99.1463V37H95.2599V32.9773H94.7827C94.4872 33.4545 94.0668 34.0568 93.5213 34.7841C92.9759 35.5 92.1974 36.142 91.1861 36.7102C90.1747 37.267 88.8281 37.5455 87.1463 37.5455ZM87.6918 33.9318C89.3054 33.9318 90.669 33.5114 91.7827 32.6705C92.8963 31.8182 93.7429 30.642 94.3224 29.142C94.902 27.6307 95.1918 25.8864 95.1918 23.9091C95.1918 21.9545 94.9077 20.2443 94.3395 18.7784C93.7713 17.3011 92.9304 16.1534 91.8168 15.3352C90.7031 14.5057 89.3281 14.0909 87.6918 14.0909C85.9872 14.0909 84.5668 14.5284 83.4304 15.4034C82.3054 16.267 81.4588 17.4432 80.8906 18.9318C80.3338 20.4091 80.0554 22.0682 80.0554 23.9091C80.0554 25.7727 80.3395 27.4659 80.9077 28.9886C81.4872 30.5 82.3395 31.7045 83.4645 32.6023C84.6009 33.4886 86.0099 33.9318 87.6918 33.9318Z" fill="#F95E07"/>
<path d="M30.6151 37.5455C28.2514 37.5455 26.1776 36.983 24.3935 35.858C22.6207 34.733 21.2344 33.1591 20.2344 31.1364C19.2457 29.1136 18.7514 26.75 18.7514 24.0455C18.7514 21.3182 19.2457 18.9375 20.2344 16.9034C21.2344 14.8693 22.6207 13.2898 24.3935 12.1648C26.1776 11.0398 28.2514 10.4773 30.6151 10.4773C32.9787 10.4773 35.0469 11.0398 36.8196 12.1648C38.6037 13.2898 39.9901 14.8693 40.9787 16.9034C41.9787 18.9375 42.4787 21.3182 42.4787 24.0455C42.4787 26.75 41.9787 29.1136 40.9787 31.1364C39.9901 33.1591 38.6037 34.733 36.8196 35.858C35.0469 36.983 32.9787 37.5455 30.6151 37.5455ZM30.6151 33.9318C32.4105 33.9318 33.8878 33.4716 35.0469 32.5511C36.206 31.6307 37.0639 30.4205 37.6207 28.9205C38.1776 27.4205 38.456 25.7955 38.456 24.0455C38.456 22.2955 38.1776 20.6648 37.6207 19.1534C37.0639 17.642 36.206 16.4205 35.0469 15.4886C33.8878 14.5568 32.4105 14.0909 30.6151 14.0909C28.8196 14.0909 27.3423 14.5568 26.1832 15.4886C25.0241 16.4205 24.1662 17.642 23.6094 19.1534C23.0526 20.6648 22.7741 22.2955 22.7741 24.0455C22.7741 25.7955 23.0526 27.4205 23.6094 28.9205C24.1662 30.4205 25.0241 31.6307 26.1832 32.5511C27.3423 33.4716 28.8196 33.9318 30.6151 33.9318ZM59.2557 37.5455C56.892 37.5455 54.8182 36.983 53.0341 35.858C51.2614 34.733 49.875 33.1591 48.875 31.1364C47.8864 29.1136 47.392 26.75 47.392 24.0455C47.392 21.3182 47.8864 18.9375 48.875 16.9034C49.875 14.8693 51.2614 13.2898 53.0341 12.1648C54.8182 11.0398 56.892 10.4773 59.2557 10.4773C61.6193 10.4773 63.6875 11.0398 65.4602 12.1648C67.2443 13.2898 68.6307 14.8693 69.6193 16.9034C70.6193 18.9375 71.1193 21.3182 71.1193 24.0455C71.1193 26.75 70.6193 29.1136 69.6193 31.1364C68.6307 33.1591 67.2443 34.733 65.4602 35.858C63.6875 36.983 61.6193 37.5455 59.2557 37.5455ZM59.2557 33.9318C61.0511 33.9318 62.5284 33.4716 63.6875 32.5511C64.8466 31.6307 65.7045 30.4205 66.2614 28.9205C66.8182 27.4205 67.0966 25.7955 67.0966 24.0455C67.0966 22.2955 66.8182 20.6648 66.2614 19.1534C65.7045 17.642 64.8466 16.4205 63.6875 15.4886C62.5284 14.5568 61.0511 14.0909 59.2557 14.0909C57.4602 14.0909 55.983 14.5568 54.8239 15.4886C53.6648 16.4205 52.8068 17.642 52.25 19.1534C51.6932 20.6648 51.4148 22.2955 51.4148 24.0455C51.4148 25.7955 51.6932 27.4205 52.25 28.9205C52.8068 30.4205 53.6648 31.6307 54.8239 32.5511C55.983 33.4716 57.4602 33.9318 59.2557 33.9318Z" fill="black"/>
</svg>
